<?xml version="1.0" standalone="no"?>
<!DOCTYPE svg PUBLIC "-//W3C//DTD SVG 20010904//EN"
 "http://www.w3.org/TR/2001/REC-SVG-20010904/DTD/svg10.dtd">
<svg version="1.0" xmlns="http://www.w3.org/2000/svg"
 width="512.000000pt" height="512.000000pt" viewBox="0 0 512.000000 512.000000"
 preserveAspectRatio="xMidYMid meet">
<metadata>
Created by potrace 1.11, written by Peter Selinger 2001-2013
</metadata>
<g transform="translate(0.000000,512.000000) scale(0.100000,-0.100000)"
fill="#000000" stroke="none">
<path d="M1687 4944 c-106 -33 -167 -134 -167 -276 l0 -68 -42 22 c-65 34
-167 32 -230 -5 -88 -51 -135 -144 -125 -244 7 -63 38 -121 96 -178 23 -21 41
-42 41 -45 0 -3 -14 -14 -31 -24 -16 -10 -43 -35 -58 -56 l-27 -37 -44 83 -45
83 -67 -36 c-38 -19 -68 -40 -68 -45 0 -9 116 -229 176 -335 24 -41 24 -42 5
-52 -16 -9 -41 10 -172 130 l-153 140 -55 -56 -56 -56 70 -67 c39 -37 107
-101 153 -143 l83 -75 -26 -57 c-38 -83 -51 -173 -36 -255 17 -91 48 -152 136
-261 l75 -94 0 -668 0 -669 80 0 80 0 0 600 c0 330 3 600 8 600 4 0 34 -18 67
-40 33 -22 71 -40 85 -40 13 0 72 31 132 71 l108 72 108 -72 c59 -39 119 -71
132 -71 13 0 73 32 132 71 l108 72 108 -72 c59 -39 119 -71 132 -71 13 0 73
32 132 71 l108 72 108 -72 c59 -39 119 -71 132 -71 13 0 73 32 132 71 l108 72
80 -53 80 -53 0 -1218 0 -1219 -880 0 -880 0 0 -80 0 -80 1168 2 1167 3 67 32
c93 44 151 100 196 191 l37 76 2 1294 2 1294 236 629 c221 588 236 634 242
711 23 347 -287 626 -619 557 -132 -27 -277 -129 -341 -239 -20 -35 -95 -223
-163 -409 -3 -10 -28 8 -79 59 l-75 74 0 159 c0 154 -1 158 -25 182 l-24 25
-471 0 -471 0 -24 -25 c-22 -22 -25 -32 -25 -104 l0 -80 -52 27 c-67 35 -161
37 -224 4 l-41 -21 -5 92 c-5 98 -20 140 -67 190 -59 64 -158 89 -244 61z
m123 -170 c12 -12 16 -55 20 -215 5 -196 6 -201 29 -220 13 -11 39 -19 59 -19
31 0 46 10 118 80 67 66 87 80 113 80 18 0 41 -4 51 -10 25 -13 41 -65 30 -95
-5 -13 -77 -93 -159 -178 l-151 -155 0 -369 -1 -368 -24 -29 -24 -30 -44 95
c-116 248 -137 286 -192 338 -62 59 -154 106 -225 116 -52 7 -100 46 -119 97
-13 33 3 84 29 98 24 13 87 13 95 0 3 -5 22 -10 42 -10 51 0 83 32 83 83 0 37
-8 47 -125 167 -116 118 -125 130 -125 166 0 51 31 84 79 84 32 0 46 -9 111
-76 41 -42 85 -80 98 -85 32 -13 89 13 102 46 6 15 10 105 10 201 0 105 4 183
11 195 20 39 75 45 109 13z m2455 -13 c137 -63 226 -222 208 -372 -3 -24 -120
-351 -261 -726 l-255 -682 -53 -36 c-30 -19 -58 -35 -64 -35 -6 0 -54 29 -108
65 -73 49 -105 65 -132 65 -27 0 -59 -16 -132 -65 -54 -36 -102 -65 -108 -65
-18 0 -150 92 -150 105 0 16 578 1552 601 1598 59 114 212 195 344 181 28 -3
77 -18 110 -33z m-1065 -201 l0 -80 -360 0 -360 0 0 80 0 80 360 0 360 0 0
-80z m-235 -360 l-120 -120 -325 0 -325 0 120 120 120 120 325 0 325 0 -120
-120z m397 -7 l77 -78 -211 -561 c-189 -504 -214 -563 -239 -578 l-29 -17 0
498 0 498 157 157 c87 87 160 158 163 158 3 0 40 -35 82 -77z m-563 -730 c0
-419 -2 -453 -15 -404 -23 84 -63 150 -139 227 -73 74 -157 123 -245 143 -66
15 -187 13 -253 -4 -32 -8 -60 -15 -62 -15 -3 0 -5 115 -5 255 l0 255 360 0
360 0 -1 -457z m-1354 143 c81 -38 106 -74 219 -316 116 -246 133 -313 70
-265 -40 30 -80 19 -190 -55 l-104 -70 -89 60 c-49 33 -92 63 -95 68 -3 4 40
42 94 83 55 41 99 79 100 84 0 20 -91 127 -106 121 -7 -3 -54 -37 -104 -77
-102 -80 -103 -80 -145 4 -34 69 -35 161 -1 232 26 57 99 127 148 142 61 20
148 15 203 -11z m964 -355 c63 -24 123 -70 161 -125 54 -79 53 -82 -65 -158
l-105 -68 -106 70 c-68 45 -116 70 -134 70 -18 0 -66 -25 -134 -70 -117 -77
-116 -77 -95 22 46 218 269 339 478 259z m1297 -461 c66 -44 116 -70 133 -70
16 0 56 18 90 40 34 22 64 40 67 40 2 0 3 -519 2 -1152 -3 -1103 -4 -1155 -22
-1188 -26 -49 -64 -88 -111 -113 -36 -19 -59 -22 -232 -25 l-193 -4 0 1219 0
1218 78 52 c42 28 78 52 79 52 1 1 50 -30 109 -69z"/>
<path d="M3915 4245 c-38 -13 -71 -27 -73 -33 -6 -20 150 -483 162 -479 6 2
41 14 79 26 37 13 67 25 67 28 0 12 -153 468 -159 474 -3 3 -37 -4 -76 -16z"/>
<path d="M3676 3684 c-38 -13 -71 -25 -72 -27 -5 -4 146 -470 155 -479 8 -9
163 41 157 50 -2 4 -38 114 -80 245 -42 130 -80 237 -84 236 -4 0 -38 -11 -76
-25z"/>
<path d="M640 1682 c0 -80 0 -80 28 -87 78 -17 131 -87 132 -171 l0 -42 -62
26 c-86 36 -225 37 -308 4 -121 -48 -214 -150 -252 -276 -18 -60 -20 -84 -14
-185 10 -187 51 -347 136 -527 58 -124 109 -183 199 -227 59 -29 74 -32 156
-32 80 0 97 4 158 32 l67 32 68 -32 c60 -28 77 -32 157 -32 77 0 98 4 147 27
97 45 144 97 209 233 97 200 145 409 137 599 -3 88 -8 110 -35 168 -44 93
-109 160 -202 206 -72 35 -79 37 -176 37 -84 -1 -110 -5 -161 -26 l-62 -26 -4
73 c-10 159 -119 279 -272 300 l-46 7 0 -81z"/>
</g>
</svg>
